# xmcd
#
# Track frame offsets:
#	150
#	16772
#	28001
#	46496
#	60790
#	77727
#	93214
#	108774
#	123051
#	139002
#	152336
#	164960
#	184066
#
# Disc length: 2672 seconds
#
# Revision: 1
# Processed by: cddbd v1.5.2PL0 Copyright (c) Steve Scherf et al.
# Submitted via: audiograbber 1.83.01
#
DISCID=920a6e0d
DTITLE=The Dinosaur Truckers - The Dinosaur Truckers
DYEAR=2013
DGENRE=Country
TTITLE0=Black Ship
TTITLE1=Let It Roll
TTITLE2=Wolves In The Street
TTITLE3=Burn Th Place To The Ground
TTITLE4=Shadow Fallin' Down My Face
TTITLE5=Tiny Studded Red Designer Belt
TTITLE6=Halfway Through
TTITLE7=Box Of Memories
TTITLE8=Mending Armados Theme
TTITLE9=The Ends Are Just The Same
TTITLE10=Hey People
TTITLE11=Leave Everything Behind
TTITLE12=High, Low And Lonesome
EXTD=
EXTT0=
EXTT1=
EXTT2=
EXTT3=
EXTT4=
EXTT5=
EXTT6=
EXTT7=
EXTT8=
EXTT9=
EXTT10=
EXTT11=
EXTT12=
PLAYORDER=
